<!--?xml version="1.0" encoding="utf-8"?-->
<!-- Generator: Adobe Illustrator 19.1.1, SVG Export Plug-In . SVG Version: 6.00 Build 0)  -->
<svg version="1.1" id="_x31_0" xmlns="http://www.w3.org/2000/svg" xmlns:xlink="http://www.w3.org/1999/xlink" x="0px" y="0px" viewBox="0 0 512 512" style="width: 32px; height: 32px; opacity: 1;" xml:space="preserve">
<style type="text/css">
	.st0{fill:#374149;}
</style>
<g>
	<path class="st0" d="M322.65,404.57c-4.347-1.754-8.742-3.406-13.242-4.828l88.152-99.946c1.875-1.457,3.469-3.332,4.722-5.621
		c3.535-6.106,3.469-13.742-0.207-19.778l-50.449-84.382c-3.543-5.965-9.996-9.574-16.938-9.574H177.376
		c-6.937,0-13.39,3.61-16.93,9.508l-50.515,84.449c-3.61,6.035-3.68,13.672-0.141,19.914c1.25,2.152,2.914,4.027,4.789,5.554
		l62.59,70.863l25.539,29.012c-48.746,15.133-88.57,50.473-109.899,96.106c-2.457,5.214-4.73,10.527-6.683,15.992h0.062
		c-0.019,0.054-0.043,0.106-0.062,0.16h68.629c20.473-34.625,58.222-57.875,101.246-57.875c43.09,0,80.774,23.25,101.242,57.875
		h68.63C408.631,463.012,370.709,423.766,322.65,404.57z M230.33,317.66l-7.031-22.234h50.187l11.848,0.055l3.406,0.062
		l-17.962,56.574l-12.695,39.625c-0.695,0-1.39-0.07-2.082-0.07c-0.695,0-1.387,0.07-2.082,0.07L230.33,317.66z M183.556,211.043
		h38.598l18.809,0.078l-19.938,34.551l-6.754,11.645l-3.352,5.625l-28.683-49.676L183.556,211.043z M335.365,273.566l-15.058-0.078
		l22.367-38.781l15.335,25.676l5.227,8.789l2.523,4.394H335.365z M247.307,273.566l-17.074-0.078l25.77-44.683l17.207,29.703
		l5.793,10.133l2.726,4.926H247.307z M310.611,246.434l-6.449,11.172l-3.168,5.336l-29.938-51.898h57.461l1.246,2.152
		L310.611,246.434z M200.486,295.426l15.266,47.535l7.286,22.824l6.426,20.618l-79.286-90.977H200.486z M282.412,386.328
		l29.176-90.902h30.39l12.11,0.043l7.719,0.129l-41.34,47.43l-19.914,22.774L282.412,386.328z M146.272,273.485l23.125-38.778
		l14.922,25.816l5.047,8.786l2.359,4.258h-30.152L146.272,273.485z"></path>
	<path class="st0" d="M256.002,84.695c5.602,0.012,10.25-4.316,10.637-9.906l4.297-63.422c0.422-6.117-4.43-11.324-10.562-11.336
		L252.154,0c-6.144-0.019-11.011,5.149-10.644,11.282l3.922,63.445C245.779,80.317,250.4,84.68,256.002,84.695z"></path>
	<path class="st0" d="M137.529,127.809c4.191,3.703,10.55,3.515,14.515-0.43c3.977-3.946,4.203-10.301,0.52-14.512l-41.805-47.89
		c-0.367-0.422-0.859-0.614-1.27-0.961c-0.324-0.274-0.66-0.531-1.012-0.762c-0.937-0.617-1.898-1.05-2.953-1.339
		c-0.305-0.086-0.61-0.164-0.926-0.223c-3.282-0.59-6.766,0.18-9.328,2.727l-5.836,5.797c-4.344,4.324-4.141,11.434,0.457,15.5
		L137.529,127.809z"></path>
	<path class="st0" d="M374.212,128.531l47.891-41.801c4.629-4.043,4.878-11.145,0.546-15.496l-5.789-5.832
		c-2.562-2.574-6.054-3.355-9.352-2.778c-0.312,0.055-0.609,0.129-0.914,0.211c-1.051,0.282-2.008,0.715-2.946,1.32
		c-0.355,0.23-0.691,0.485-1.019,0.758c-0.41,0.339-0.902,0.527-1.27,0.941l-42.09,47.641c-3.715,4.191-3.528,10.547,0.418,14.523
		C363.639,131.988,369.994,132.211,374.212,128.531z"></path>
</g>
</svg>
